<?xml version="1.0" encoding="utf-8"?>
<!-- Generator: Adobe Illustrator 17.1.0, SVG Export Plug-In . SVG Version: 6.00 Build 0)  -->
<!DOCTYPE svg PUBLIC "-//W3C//DTD SVG 1.1//EN" "http://www.w3.org/Graphics/SVG/1.1/DTD/svg11.dtd">
<svg version="1.1" id="Capa_1" xmlns="http://www.w3.org/2000/svg" xmlns:xlink="http://www.w3.org/1999/xlink" x="0px" y="0px"
	 viewBox="0 0 200 200" enable-background="new 0 0 200 200" xml:space="preserve">
<g>
	<path fill="#FFFFFF" d="M65,81.3V33.8L34,46.4v14.9l15-6.4v15.9c-4,0.7-7.5,1.1-11,1.1c-6.7,0-11.9-2.3-15.4-6.8s-5.3-11-5.3-19.6
		c0-8.2,2.1-14.7,6.5-19.6s10.1-7.3,17.3-7.3c4.4,0,8.7,0.7,12.8,2.2L64.5,9.7C57,6.4,49.2,4.8,41.2,4.8c-12.9,0-23,3.6-30.3,10.7
		S0,32.5,0,45.2c0,13.1,3.1,23.1,9.4,30.1c6.3,7,15.3,10.5,27.2,10.5c4.7,0,9.4-0.3,13.9-1C55,84.1,60,83,65,81.3z"/>
	<polygon fill="#FFFFFF" points="172.9,41 199.3,8 181.5,8 154,40.4 154,8 139,8 139,81 154,81 154,60.3 161.1,51.3 181.8,85 
		200,85 	"/>
</g>
<polygon fill="#269A91" points="87,123 100,145.6 113,123 "/>
<path fill="#FFFFFF" d="M99.8,103.8c8.9,0,17.3,2.3,24.7,6.2l7.6-3.9c-9.3-6-20.4-9.5-32.3-9.5c-11.7,0-22.6,3.4-31.8,9.2l7.4,4.1
	C82.6,106,90.9,103.8,99.8,103.8z"/>
<polygon fill="#FFFFFF" points="121.4,122.1 100.1,159.1 78.6,122.1 48.3,104.6 48.3,104.6 48.2,104.6 48.3,104.7 48.5,104.8 
	90,176.7 100.1,194.2 110.2,176.7 151.8,104.6 "/>
<path fill="#269A91" d="M75.8,8c2.7,7,10,25,10,25s8.5,0,12.2,0c-1.7-4-3.4-8-5.2-12c0,0,0,0,0,0L87.1,8C82.2,8,78.2,8,75.8,8z"/>
<path fill="#FFFFFF" d="M125,47.4c-1.6-1.5-3.6-2.8-6-3.7c0,0-0.1,0-0.1,0C131.4,26.5,128.4,8,128.4,8c-0.2,0-7,0-14.5,0
	c-9.6,0-20.5,0-20.5,0l5.9,13c2.9,0,11,0,15.4,0c-1.1,8-4.8,14.9-10.3,20.1c-3.7,3.5-8.1,6.2-13,7.8l4.2,11
	c4.1-0.6,9.1-3.4,13.8-7.1c0.2,0.2,0.3,0.4,0.5,0.6c1.3,1.6,2,3.6,2,6.1c0,4.4-1.4,7.5-4.1,9.5c-2.8,2-7,3-12.8,3
	c-3.8,0-7.5-0.5-11.3-1.5c-3.9-1-7.5-2.3-10.5-4v14.9c7,3,14.8,4.5,23.8,4.5c10.7,0,19-2.2,24.7-6.7c5.8-4.4,8.7-10.7,8.7-18.6
	C130.2,55,128.5,50.6,125,47.4z"/>
</svg>
