<?xml version="1.0" encoding="utf-8"?>
<!-- Generator: Adobe Illustrator 17.1.0, SVG Export Plug-In . SVG Version: 6.00 Build 0)  -->
<!DOCTYPE svg PUBLIC "-//W3C//DTD SVG 1.1//EN" "http://www.w3.org/Graphics/SVG/1.1/DTD/svg11.dtd">
<svg version="1.1" id="Capa_1" xmlns="http://www.w3.org/2000/svg" xmlns:xlink="http://www.w3.org/1999/xlink" x="0px" y="0px"
	 viewBox="0 0 500 177" enable-background="new 0 0 500 177" xml:space="preserve">
<g>
	<polygon fill="#006699" points="92.5,133.7 60.5,145.1 0.8,107 60.5,70.4 92.5,81.5 82.3,110.9 	"/>
	<polygon fill="#003366" points="308.9,102.9 382.9,102.9 322.3,70.4 257.7,70.4 258.3,70.4 	"/>
	<polygon fill="#33CC99" points="331.2,102.4 381.3,102.4 296.8,70.4 281.9,70.4 	"/>
	<polygon fill="#006699" points="350.8,102.4 394,102.4 337.1,70.4 301.5,70.4 	"/>
	<path fill="#006699" d="M182.8,164.8h3.1c0.3,0,0.5-0.1,0.7-0.3l9.9-11.8c0.3-0.3,0.3-0.7,0.1-1.1L170,113.3
		c-0.2-0.2-0.4-0.4-0.7-0.4h-51.8c-0.5,0-0.9,0.4-0.9,0.9v19.4c0,0.5,0.4,0.9,0.9,0.9h46.5c0.3,0,0.5,0.1,0.7,0.4l12.8,17
		c0.3,0.4,0.2,1-0.2,1.3l-23,14.8c-0.1,0.1-0.3,0.1-0.5,0.1c0,0-7.3,0.1-7.5,0.2l-12.8,9.3c-0.7,0.5-0.3,0,0.5,0h9.9h26.8
		c0.2,0,0.5,0.2,0.6,0l8.7-9.6l2.2-2.3C182.3,164.9,182.5,164.8,182.8,164.8z"/>
	<polygon fill="#3399FF" points="346.1,102.4 377.1,102.4 320.2,70.4 296.8,70.4 	"/>
	<rect x="104.4" y="92.6" fill="#FAFAFA" width="12.2" height="22.6"/>
	<polygon fill="#006699" points="106.7,0.3 106.7,31.5 142.1,80 129.3,80 129.2,80.2 169.7,80.2 	"/>
	<polygon fill="#33CC99" points="106.7,14.2 106.7,31.5 142.3,80.1 142.3,80.1 143.7,80.2 158,80.2 	"/>
	<polygon fill="#FAFAFA" points="412.2,102.4 412.3,102.4 316.1,102.4 267.5,70.4 227.8,70.4 143.7,0.8 106.7,0.8 166.8,80.2 
		161.4,80.2 129.2,80.2 117.7,92.5 118.8,112.2 165.3,105.9 248.4,142.7 336.9,148 484.3,124.1 471.3,102.4 	"/>
	<polygon fill="#DADEE6" points="227.8,70.4 143.7,0.8 220.8,70.4 	"/>
	<polygon fill="#CACFD9" points="412.2,102.4 412.3,102.4 316.1,102.4 267.5,70.4 242.6,70.4 284.5,102.7 136.7,102.7 136.7,80.2 
		125.7,80.2 117.7,92.5 125.7,114.5 169.7,114.5 175.6,124.5 266.9,124.5 264.9,115 383,112.9 394.1,102.4 	"/>
	<polygon fill="#DADEE6" points="255.2,70.4 242.6,70.4 284.5,102.7 297.1,102.7 	"/>
	<polygon fill="#003366" points="116.5,92.3 116.5,114.5 125.7,114.5 125.7,80.2 	"/>
	<polygon fill="#DADEE6" points="114.2,10.7 166.8,80.2 200.8,80.2 	"/>
	<polygon fill="#33CC99" points="154,167.6 163.2,167.6 183.9,152.2 156.7,114.5 125.8,114.5 136.4,134.1 161.3,134.1 174.9,152.2 
		154,167.6 154,167.6 	"/>
	<g>
		<polygon fill="#FAFAFA" points="221.6,133.3 263.2,168 173.8,168 169.8,168 203.9,172.5 295.4,177.1 309.9,177.1 318.4,167.6 
			306.3,167.6 288.7,151.6 277.3,140.3 		"/>
		<polygon fill="#CACFD9" points="175.6,124.5 196.9,152.2 183.9,168 173.8,168 307.3,168 289.2,152.2 244.5,152.2 225.3,135.6 
			273,135.6 288.7,151.6 288.7,151.6 288.7,151.6 265.1,124.5 		"/>
		<polygon fill="#8893AA" points="307.3,168 289.2,152.2 274.3,152.2 292.3,168 		"/>
		<polygon fill="#ABB3C3" points="277.2,168 292.3,168 274.3,152.2 259.2,152.2 		"/>
		<polygon fill="#CACFD9" points="484.3,124.1 493.7,112.4 493.5,105.4 483.6,102.4 471.3,102.4 471.8,112.3 333.8,136.9 
			284.6,136.9 295.1,151.6 343.5,151.6 		"/>
	</g>
	<polygon fill="#EDEEF0" points="176.1,168 245.3,168 227.3,152.2 198.4,152.2 	"/>
	<polygon fill="#003366" points="211.2,152.2 196.9,152.2 175.5,168 177.5,168 186.1,168 188.3,168 192.9,169 	"/>
	<polygon fill="#ABB3C3" points="215.7,167.6 211.3,168 199.1,177.1 293.3,177.1 310.7,177.1 319.3,167.6 304.2,167.6 260.6,167.6 	
		"/>
	<g>
		<polygon fill="#006699" points="191.2,167.6 188,167.6 187.9,167.6 176.7,167.6 164.3,177.1 178.7,177.1 185.3,177.1 194.8,168 
			190.7,168 		"/>
		<polygon fill="#ABB3C3" points="174,168 171.7,168 163.2,168 151.1,177.1 164.3,177.1 176.2,168 		"/>
		<polygon fill="#8893AA" points="174,168 171.7,168 163.2,168 151.1,177.1 164.3,177.1 176.2,168 		"/>
		<polygon fill="#003366" points="203.9,167.6 199.8,167.6 199.7,167.6 189.4,167.6 178,177.1 194.5,177.1 		"/>
		<polygon fill="#8893AA" points="217.6,167.6 214.4,167.6 214.4,167.6 204.1,167.6 192.7,177.1 207.2,177.1 		"/>
	</g>
	<polygon fill="#ABB3C3" points="264.9,115 169.5,115 175.6,124.5 273.7,124.5 	"/>
	<polygon fill="#96A0B4" points="251.7,115 288.7,151.6 301.2,151.6 264.9,115 	"/>
	<polygon fill="#ABB3C3" points="200.8,80.2 157.2,67.4 166.8,80.2 	"/>
	<polygon fill="#006699" points="263.4,167.6 254.6,177.1 267,177.1 268.5,177.1 277.2,167.6 	"/>
	<polygon fill="#3399CC" points="292.5,167.6 283.6,177.1 296.1,177.1 297.6,177.1 306.3,167.6 	"/>
	<polygon fill="#96A0B4" points="500.8,102.4 483.6,102.4 483.6,111.8 493.7,112.4 	"/>
	<polygon fill="#CACFD9" points="104.4,134.2 116.5,134.2 116.5,126.2 116.5,119.3 116.5,114.5 104.4,114.5 	"/>
	<polygon fill="#339999" points="92.5,82.2 71,82.2 30,107 69.1,132.6 92.5,133.7 82.3,107.9 	"/>
	<polygon fill="#33CC99" points="92.5,82.2 88.3,107.9 92.5,133.7 60.5,107 	"/>
	<polyline fill="#FCFCFA" points="92.5,133.6 76.5,107 92.5,81.5 	"/>
</g>
</svg>
