<?xml version="1.0" encoding="utf-8"?>
<!-- Generator: Adobe Illustrator 17.1.0, SVG Export Plug-In . SVG Version: 6.00 Build 0)  -->
<!DOCTYPE svg PUBLIC "-//W3C//DTD SVG 1.1//EN" "http://www.w3.org/Graphics/SVG/1.1/DTD/svg11.dtd">
<svg version="1.1" id="Capa_1" xmlns="http://www.w3.org/2000/svg" xmlns:xlink="http://www.w3.org/1999/xlink" x="0px" y="0px"
	 viewBox="0 0 460 244" enable-background="new 0 0 460 244" xml:space="preserve">
<g>
	<g>
		<path fill="#EDEEF0" d="M265.2,99.6h-24.9c-2.1,0-3.9,1.1-5.3,3.4c-1.5,2.2-2.2,5-2.2,8.2v25c0,1.7,0.4,3,1.1,4
			c0.6,1.1,1.5,1.7,2.6,1.7c1.1,0,2-0.6,2.7-1.7c0.7-1.1,1.1-2.4,1.1-4v-21.2h2.5v54.7c0,1.7,0.4,3.3,1.2,4.8c0.9,1.3,2,1.9,3.1,1.9
			c1.2,0,2.2-0.6,3-1.9c0.9-1.4,1.4-3,1.4-4.8v-27.9h2.5v27.9c0,1.8,0.5,3.4,1.4,4.8c0.8,1.3,1.8,1.9,3,1.9c1.2,0,2.2-0.6,3.1-1.9
			c0.8-1.5,1.2-3.1,1.2-4.8v-54.7h2.5v21.2c0,1.5,0.4,2.9,1.1,4c0.7,1.1,1.6,1.7,2.7,1.7s2-0.6,2.6-1.7c0.7-1,1.1-2.3,1.1-4v-25
			c0-3.2-0.7-5.9-2.2-8.2C269.1,100.7,267.3,99.6,265.2,99.6z"/>
		<path fill="#EDEEF0" d="M252.8,78c-2.8,0-5.1,1-6.9,2.9c-2,1.8-2.9,4.2-2.9,6.9c0,2.8,1,5.1,2.9,6.9c1.8,2,4.2,2.9,6.9,2.9
			c2.8,0,5.1-1,6.9-2.9c1.9-1.8,2.9-4.2,2.9-6.9c0-2.8-1-5.1-2.9-6.9C257.9,79,255.6,78,252.8,78z"/>
	</g>
	<path fill="#EDEEF0" d="M251.6,195.4c-41.8,14.2-87.6-6.6-104.3-47.4l-9.2,3.5c18.7,46,70.1,69.3,117,53.2L251.6,195.4z"/>
	<path fill="#EDEEF0" d="M260,40.3c1.9,0.9,3.7,1.8,5.6,2.9l5.3-8.3c-2.2-1.3-4.5-2.4-6.8-3.5L260,40.3z"/>
	<path fill="#1AC98E" d="M259.3,29.3c-10.2-4.1-21.1-6.3-32.2-6.6l-0.1,9.8c9.8,0.3,19.3,2.2,28.3,5.8L259.3,29.3z"/>
	<path fill="#EDEEF0" d="M197.7,36.9c8-2.7,16.1-4.2,24.1-4.5l0.1-9.8c-9.2,0.3-18.6,1.9-27.7,5.1L197.7,36.9z"/>
	<path fill="#F066FD" d="M192.9,38.8l-3.5-9.2c-22.1,9-39,25.6-48.8,45.6l9,4.1C158.3,61.5,173.3,46.8,192.9,38.8z"/>
	<path fill="#1AC98E" d="M138.5,79.9c-7,16.5-9.2,35-5.8,53.4l9.6-2.2c-3-16.2-1-32.5,5.1-47.1L138.5,79.9z"/>
	<path fill="#FC3D6F" d="M259.9,202.8c22.1-9,39-25.6,48.8-45.6l-8.9-4.1c-8.7,17.7-23.7,32.4-43.3,40.4L259.9,202.8z"/>
	<path fill="#F066FD" d="M136.3,146.6l9.2-3.5c-0.8-2.3-1.5-4.7-2.1-7l-9.6,2.2C134.5,141.1,135.3,143.8,136.3,146.6z"/>
	<path fill="#EDEEF0" d="M112.1,116.1c0,25.2,8.3,48.5,22.3,67.3l8.9-6.7c-12.6-16.9-20-37.9-20-60.5c0-26.8,10.4-51.2,27.4-69.3
		l-7.9-7.9C123.7,59.1,112.1,86.2,112.1,116.1z"/>
	<path fill="#F7ED7E" d="M321.8,86.2h-8.6c-0.3-1-0.7-2-1-2.9c-7.4-19.6-20.6-35.3-37-45.8l-5.2,8.3c14.6,9.4,26.5,23.4,33,41
		c7.8,20.8,6.8,42.7-1.2,61.7l8.9,4.1c8.2-19.4,9.8-41.5,3.5-62.9h8.5c2,7.4,3.2,15.1,3.5,23.1h11.1c-0.2-7.9-1.3-15.7-3.1-23.1
		h19.9V23.7l13.5-23.4h-30.3l13.5,23.4v62.5h-17.4C320.6,39.6,278.6,5.1,228.3,3.5v11.1C272.4,16.1,309.4,45.8,321.8,86.2z M343,3.6
		h18.9L352.5,20L343,3.6z"/>
	<path fill="#F066FD" d="M152.2,187.2c-1.6-1.6-3.2-3.3-4.6-5.1l-8.9,6.7c1.8,2.1,3.7,4.2,5.7,6.2L152.2,187.2z"/>
	<path fill="#F066FD" d="M188.8,222.9c10.3,3.5,21.2,5.5,32.5,5.8v-11.1c-9.9-0.3-19.5-2.1-28.4-5L188.8,222.9z"/>
	<path fill="#FC3D6F" d="M228.3,217.6v11.1c28.5-0.9,54.3-12.3,73.7-30.5l-7.9-7.9C276.8,206.5,253.7,216.7,228.3,217.6z"/>
	<path fill="#EDEEF0" d="M299,185.4l7.9,7.9c14.6-15.5,24.8-35.2,28.7-57l-11-1.5C321,154.1,311.9,171.6,299,185.4z"/>
	<path fill="#FC3D6F" d="M325.7,127.9l11,1.5c0.4-3.2,0.6-6.5,0.7-9.8h-11.1C326.2,122.4,326,125.1,325.7,127.9z"/>
	<path fill="#F066FD" d="M154.9,116.1c0,38.5,31.3,69.8,69.8,69.8v-3.3c-36.7,0-66.5-29.9-66.5-66.5c0-36.7,29.9-66.5,66.5-66.5
		c22.8,0,43.8,11.5,56.1,30.8l2.8-1.8c-12.9-20.2-34.9-32.3-58.9-32.3C186.2,46.3,154.9,77.6,154.9,116.1z"/>
	<path fill="#F6AE3E" d="M224.7,68.2c-26.4,0-48,21.5-48,48c0,26.4,21.5,48,48,48v-3.3c-24.6,0-44.7-20-44.7-44.7
		c0-24.6,20-44.7,44.7-44.7V68.2z"/>
	<path fill="#EDEEF0" d="M191.4,96.2c-3.6,6-5.5,12.9-5.5,19.9c0,21.4,17.4,38.8,38.8,38.8v-3.3c-19.6,0-35.5-15.9-35.5-35.5
		c0-6.4,1.7-12.7,5-18.2L191.4,96.2z"/>
	<path fill="#1AC98E" d="M165.4,116.1c0,32.7,26.6,59.3,59.3,59.3v-3.3c-30.9,0-56-25.1-56-56s25.1-56,56-56
		c7.6,0,14.9,1.5,21.8,4.4l1.3-3c-7.3-3.1-15.1-4.7-23.1-4.7C192,56.8,165.4,83.4,165.4,116.1z"/>
	<path fill="#FC3D6F" d="M197.9,114.3h21.5l-15.2-15.2C200.5,103.1,198.2,108.4,197.9,114.3z"/>
	<path fill="#EDEEF0" d="M199,122.5l15.9-6.2h-16.9C198,118.5,198.4,120.5,199,122.5z"/>
	<path fill="#EDEEF0" d="M205.7,97.6L220,112l-2.8-20.2C212.8,92.6,208.9,94.7,205.7,97.6z"/>
	<path fill="#1AC98E" d="M220.9,91.3c-0.5,0-1.1,0.1-1.6,0.1l1.6,11.6V91.3z"/>
	<path fill="#F066FD" d="M203.8,131l13.3-13.3l-17.4,6.8C200.7,126.8,202.1,129,203.8,131z"/>
	<path fill="#F6AE3E" d="M124,14.3h52.6C165.9,19.3,156.1,26,147.6,34l7.9,7.9c17.4-16.2,40.4-26.4,65.8-27.2V3.5
		c-13,0.4-25.5,3-37.1,7.5h-58.4L132,0.3h-30.3l15.2,26.2L124,14.3z M126.3,3.6L116.8,20l-9.5-16.4H126.3z"/>
	<path fill="#1AC98E" d="M37.7,232h131.8v-17.7c4.1,2.3,8.4,4.4,12.8,6.2l4.1-10.4c-10.7-4.4-20.6-10.6-29.1-18.2l-7.9,7.9
		c5.2,4.7,10.8,8.9,16.8,12.5v16.3H39.6l6.2-10.7H15.5l15.2,26.2L37.7,232z M40.1,221.4l-9.5,16.4l-9.5-16.4H40.1z"/>
	<g>
		<rect x="385.1" y="36.6" fill="#EDEEF0" width="66.7" height="3.3"/>
		<rect x="385.1" y="124" fill="#EDEEF0" width="66.7" height="3.3"/>
		<rect x="385.1" y="51.9" fill="#EDEEF0" width="66.7" height="3.3"/>
		<rect x="385.1" y="67.2" fill="#EDEEF0" width="66.7" height="3.3"/>
	</g>
	<g>
		<path fill="#1AC98E" d="M5.9,17.4h77.3l-5.9-9.9C57.5,7.5,0,7.5,0,7.5L5.9,17.4z"/>
		<rect x="4.7" y="36.4" fill="#EDEEF0" width="66.7" height="3.3"/>
		<rect x="4.7" y="51.7" fill="#EDEEF0" width="66.7" height="3.3"/>
		<rect x="4.7" y="67" fill="#EDEEF0" width="38.6" height="3.3"/>
	</g>
	<g>
		<path fill="#1AC98E" d="M5.9,102.8h77.3l-5.9-9.9c-19.7,0-57.5,0-77.3,0C0,94.4,5.9,102.8,5.9,102.8z"/>
		<path fill="#1AC98E" d="M454,17.4h-77.3l5.9-9.9c19.7,0,77.3,0,77.3,0L454,17.4z"/>
		<path fill="#1AC98E" d="M454,102.8h-77.3l5.9-9.9c19.7,0,57.5,0,77.3,0C460,94.4,454,102.8,454,102.8z"/>
		<rect x="4.7" y="121.8" fill="#EDEEF0" width="66.7" height="3.3"/>
		<rect x="4.7" y="137.1" fill="#EDEEF0" width="66.7" height="3.3"/>
		<rect x="4.7" y="152.4" fill="#EDEEF0" width="38.6" height="3.3"/>
	</g>
	<polygon fill="#F6AE3E" points="361.3,223.3 361.3,231.2 351,231.2 351,197.8 346.5,197.8 346.5,231.2 342.7,231.2 342.7,235.2 
		447.2,235.2 447.2,241 451.2,241 451.2,235.2 456.7,235.2 456.7,231.2 451.2,231.2 451.2,150.8 447.2,150.8 447.2,231.2 440,231.2 
		440,162.5 435.5,162.5 435.5,231.2 425.1,231.2 425.1,190.3 420.7,190.3 420.7,231.2 410.3,231.2 410.3,197.8 405.8,197.8 
		405.8,231.2 395.5,231.2 395.5,194 391,194 391,231.2 380.6,231.2 380.6,210.9 376.2,210.9 376.2,231.2 365.8,231.2 365.8,223.3 	
		"/>
</g>
</svg>
