<?xml version="1.0" encoding="utf-8"?>
<!-- Generator: Adobe Illustrator 17.1.0, SVG Export Plug-In . SVG Version: 6.00 Build 0)  -->
<!DOCTYPE svg PUBLIC "-//W3C//DTD SVG 1.1//EN" "http://www.w3.org/Graphics/SVG/1.1/DTD/svg11.dtd">
<svg version="1.1" id="Capa_1" xmlns="http://www.w3.org/2000/svg" xmlns:xlink="http://www.w3.org/1999/xlink" x="0px" y="0px"
	 viewBox="0 0 103 100" enable-background="new 0 0 103 100" xml:space="preserve">
<g>
	<linearGradient id="SVGID_1_" gradientUnits="userSpaceOnUse" x1="51.5001" y1="89.0309" x2="51.5001" y2="4.754871e-005">
		<stop  offset="4.854369e-003" style="stop-color:#1AA4C9"/>
		<stop  offset="1" style="stop-color:#1AC98E"/>
	</linearGradient>
	<polygon fill="url(#SVGID_1_)" points="25.8,89 0.1,44.5 25.8,0 77.2,0 102.9,44.5 77.2,89 	"/>
	<g>
		<polygon fill="#EDEEF0" points="39.5,52.2 16.8,63.2 24.7,81.5 33,81.5 50.7,100 69.6,81.4 76.1,79.8 86.2,63.2 62.1,52.2 		"/>
		<polygon fill="#E3E4E6" points="47.6,85.3 61.4,76.9 38.8,76.9 37.7,76.3 40.9,81.2 		"/>
		<polygon fill="#B2B7BF" points="40.9,81.2 37.7,76.3 16.8,63.2 24.7,81.5 33,81.5 50.7,100 47.6,85.3 		"/>
		<polygon fill="#CDD1D9" points="47.6,85.3 50.7,100 69.6,81.4 76.1,79.8 86.2,63.2 61.4,76.9 		"/>
		<polygon fill="#FAFAFA" points="62.1,52.2 39.5,52.2 16.8,63.2 37.7,76.3 38.8,76.9 61.4,76.9 86.2,63.2 		"/>
	</g>
	<g>
		<g>
			<g>
				<path fill="#F6AE3E" d="M45,8.2L31,15l7.8,7l-13,16.6l15.4,22.3L21.5,39.4c0,0,14.7-17.2,14.2-17.4c-0.5-0.2-9.9-8-9.9-8L45,8.2
					z"/>
				<polygon fill="#F7E72E" points="32.4,22 16.3,28.7 16.3,34.1 				"/>
				<polygon fill="#F7E72E" points="41.9,27.3 32.4,37.6 32.4,44 				"/>
			</g>
			<g>
				<path fill="#F6AE3E" d="M54.1,8.2l14,6.8l-7.8,7l13,16.6L57.9,60.8l19.7-21.4c0,0-14.7-17.2-14.2-17.4c0.5-0.2,9.9-8,9.9-8
					L54.1,8.2z"/>
				<polygon fill="#F7E72E" points="66.7,22 82.8,28.7 82.8,34.1 				"/>
				<polygon fill="#F7E72E" points="57.2,27.3 66.7,37.6 66.7,44 				"/>
			</g>
		</g>
		<path fill="#F7E72E" d="M51.1,9.3l-0.9-2.1h-1.3L48,9.3l-1.9,5v33.9v3v4.7c0,0.6,0.5,1.2,1.2,1.2h4.5c0.6,0,1.2-0.5,1.2-1.2v-4.7
			v-3V14.3L51.1,9.3z"/>
		<radialGradient id="SVGID_2_" cx="52.7869" cy="51.3692" r="8.1525" gradientUnits="userSpaceOnUse">
			<stop  offset="0" style="stop-color:#F498FD"/>
			<stop  offset="1" style="stop-color:#FC5D87"/>
		</radialGradient>
		<path fill="url(#SVGID_2_)" d="M47.3,57.1h4.5c0.6,0,1.2-0.5,1.2-1.2v-4.7h-6.8v4.7C46.2,56.6,46.7,57.1,47.3,57.1z"/>
		<g>
			<linearGradient id="SVGID_3_" gradientUnits="userSpaceOnUse" x1="49.548" y1="32.7414" x2="52.9425" y2="32.7414">
				<stop  offset="0" style="stop-color:#F7E72E"/>
				<stop  offset="1" style="stop-color:#F7CB36"/>
			</linearGradient>
			<rect x="49.5" y="14.3" fill="url(#SVGID_3_)" width="3.4" height="36.9"/>
			<linearGradient id="SVGID_4_" gradientUnits="userSpaceOnUse" x1="46.1534" y1="32.7414" x2="49.548" y2="32.7414">
				<stop  offset="0" style="stop-color:#F7E72E"/>
				<stop  offset="1" style="stop-color:#F7CB36"/>
			</linearGradient>
			<rect x="46.2" y="14.3" fill="url(#SVGID_4_)" width="3.4" height="36.9"/>
		</g>
		<rect x="46.2" y="48.2" fill="#FFFFFF" width="6.8" height="3"/>
		<polygon fill="#FFFFFF" points="49.5,8.5 48,9.3 46.2,14.3 47.9,15.7 49.5,14.3 51.2,15.7 52.9,14.3 51.1,9.3 		"/>
		<linearGradient id="SVGID_5_" gradientUnits="userSpaceOnUse" x1="48.0317" y1="8.2389" x2="51.0642" y2="8.2389">
			<stop  offset="4.854369e-003" style="stop-color:#004B8D"/>
			<stop  offset="1" style="stop-color:#1E90FF"/>
		</linearGradient>
		<polygon fill="url(#SVGID_5_)" points="48.9,7.2 48,9.3 51.1,9.3 50.2,7.2 		"/>
	</g>
</g>
</svg>
