<?xml version="1.0" encoding="utf-8"?>
<!-- Generator: Adobe Illustrator 17.1.0, SVG Export Plug-In . SVG Version: 6.00 Build 0)  -->
<!DOCTYPE svg PUBLIC "-//W3C//DTD SVG 1.1//EN" "http://www.w3.org/Graphics/SVG/1.1/DTD/svg11.dtd">
<svg version="1.1" id="Capa_1" xmlns="http://www.w3.org/2000/svg" xmlns:xlink="http://www.w3.org/1999/xlink" x="0px" y="0px"
	 viewBox="0 0 104 100" enable-background="new 0 0 104 100" xml:space="preserve">
<g>
	<linearGradient id="SVGID_1_" gradientUnits="userSpaceOnUse" x1="52" y1="4.004233e-005" x2="52" y2="89.6996">
		<stop  offset="4.854369e-003" style="stop-color:#369CFF"/>
		<stop  offset="1" style="stop-color:#0063C7"/>
	</linearGradient>
	<polygon fill="url(#SVGID_1_)" points="26.1,89.7 0.2,44.8 26.1,0 77.9,0 103.8,44.8 77.9,89.7 	"/>
	<g>
		<polygon fill="#EDEEF0" points="62.5,55.1 41.3,55.1 19.4,65.5 28.9,81.1 35,82.5 52.8,100 69.3,82.6 77.2,82.6 84.6,65.5 		"/>
		<polygon fill="#E3E4E6" points="42.7,78.3 49.9,88.5 55.6,86.2 49.9,88.5 60.9,84.4 65.1,77.6 63.9,78.3 		"/>
		<polygon fill="#B2B7BF" points="42.7,78.3 19.4,65.5 28.9,81.1 35,82.5 52.8,100 49.9,88.5 		"/>
		<polygon fill="#CDD1D9" points="65.1,77.6 60.9,84.4 49.9,88.5 52.8,100 69.3,82.6 77.2,82.6 84.6,65.5 		"/>
		<polygon fill="#FAFAFA" points="62.5,55.1 41.3,55.1 19.4,65.5 42.7,78.3 63.9,78.3 65.1,77.6 84.6,65.5 		"/>
	</g>
	<g>
		<g>
			<g>
				<g>
					<g>
						<linearGradient id="SVGID_2_" gradientUnits="userSpaceOnUse" x1="41.944" y1="61.5364" x2="44.8778" y2="61.5364">
							<stop  offset="0" style="stop-color:#F7E72E"/>
							<stop  offset="1" style="stop-color:#F7CB36"/>
						</linearGradient>
						<polygon fill="url(#SVGID_2_)" points="41.9,66 44.9,58.1 42,57.1 						"/>
						<linearGradient id="SVGID_3_" gradientUnits="userSpaceOnUse" x1="43.6314" y1="62.8528" x2="49.5869" y2="62.8528">
							<stop  offset="0" style="stop-color:#F7E72E"/>
							<stop  offset="1" style="stop-color:#F7CB36"/>
						</linearGradient>
						<polygon fill="url(#SVGID_3_)" points="49.6,59.8 46.7,58.8 43.6,66.9 						"/>
					</g>
					<linearGradient id="SVGID_4_" gradientUnits="userSpaceOnUse" x1="49.4499" y1="59.8152" x2="42.2955" y2="77.5223">
						<stop  offset="0.1408" style="stop-color:#F7E72E"/>
						<stop  offset="1" style="stop-color:#FFFFFF"/>
					</linearGradient>
					<polygon fill="url(#SVGID_4_)" points="36,87.1 43.6,66.9 43.6,66.9 43.6,66.9 46.7,58.8 44.9,58.1 33.8,87.5 40.4,92.4 
						42.6,89.7 40.6,91.3 					"/>
					<radialGradient id="SVGID_5_" cx="46.1516" cy="58.4951" r="6.3315" gradientUnits="userSpaceOnUse">
						<stop  offset="0" style="stop-color:#FC5D87"/>
						<stop  offset="0.5194" style="stop-color:#F6AE3E"/>
					</radialGradient>
					<polygon fill="url(#SVGID_5_)" points="44.9,58.1 43.6,61.5 43.6,64.2 45.3,62.5 46.7,58.8 					"/>
					<g>
						<polygon fill="none" points="39.2,47 40.7,49.6 40.7,49.6 						"/>
						<polygon fill="#FFFFFF" points="69.9,20.9 60.7,17.6 51.4,14.2 50.3,15 42.2,37.3 35.2,47.7 40.7,49.6 40.7,49.6 42.3,52.5 
							44.4,53.2 47.4,54.3 50.3,55.4 52.4,56.1 55.4,55 55.4,55 55.4,55 55.4,55 55.4,55 60.9,56.2 62.2,44.6 70.4,22.3 						"/>
						<linearGradient id="SVGID_6_" gradientUnits="userSpaceOnUse" x1="55.4311" y1="49.7025" x2="63.9027" y2="49.7025">
							<stop  offset="4.854369e-003" style="stop-color:#004B8D"/>
							<stop  offset="1" style="stop-color:#1E90FF"/>
						</linearGradient>
						<polygon fill="url(#SVGID_6_)" points="59.1,53.4 58.9,53.5 55.4,55 55.4,55 62.2,59.4 62.2,44.6 63.9,40.1 						"/>
					</g>
					<linearGradient id="SVGID_7_" gradientUnits="userSpaceOnUse" x1="38.8397" y1="56.7824" x2="52.7825" y2="56.7824">
						<stop  offset="4.854369e-003" style="stop-color:#004B8D"/>
						<stop  offset="1" style="stop-color:#1E90FF"/>
					</linearGradient>
					<polygon fill="url(#SVGID_7_)" points="42.3,52.5 52.4,56.1 52.8,61.1 38.8,56 					"/>
					<polygon fill="#FFFFFF" points="47,50.8 46.8,50.3 48.8,49.2 49.3,48.9 49.9,50.6 50.3,51.6 50.1,51.7 47.8,53 					"/>
					<linearGradient id="SVGID_8_" gradientUnits="userSpaceOnUse" x1="57.8034" y1="20.429" x2="61.3608" y2="20.429">
						<stop  offset="4.854369e-003" style="stop-color:#004B8D"/>
						<stop  offset="1" style="stop-color:#1E90FF"/>
					</linearGradient>
					<polygon fill="url(#SVGID_8_)" points="61.4,21.4 57.8,20.1 59.1,19.5 60.7,20.1 					"/>
					<linearGradient id="SVGID_9_" gradientUnits="userSpaceOnUse" x1="46.838" y1="50.9443" x2="50.3166" y2="50.9443">
						<stop  offset="4.854369e-003" style="stop-color:#004B8D"/>
						<stop  offset="1" style="stop-color:#1E90FF"/>
					</linearGradient>
					<polygon fill="url(#SVGID_9_)" points="47,50.8 46.8,50.3 48.8,49.2 49.3,48.9 49.9,50.6 50.3,51.6 50.1,51.7 47.8,53 					"/>
					<radialGradient id="SVGID_10_" cx="67.8945" cy="25.7558" r="33.8551" gradientUnits="userSpaceOnUse">
						<stop  offset="0" style="stop-color:#F498FD"/>
						<stop  offset="1" style="stop-color:#FC5D87"/>
					</radialGradient>
					<polygon fill="url(#SVGID_10_)" points="57,50.4 42.4,45.1 51.9,19.1 66.5,24.4 					"/>
				</g>
				<polygon fill="#FFFFFF" points="55.6,31.8 50.5,35 57.5,37.5 				"/>
			</g>
			<path fill="#FFFFFF" d="M42.5,15l-9.4,26.5l-0.5-9.7C32.6,31.8,40.3,19.5,42.5,15z"/>
			<path fill="#FFFFFF" d="M77.3,21.4l-8.9,24.1l5.6-5.3C73.9,40.1,76,26.9,77.3,21.4z"/>
			<linearGradient id="SVGID_11_" gradientUnits="userSpaceOnUse" x1="51.4441" y1="16.9019" x2="69.9231" y2="16.9019">
				<stop  offset="4.854369e-003" style="stop-color:#004B8D"/>
				<stop  offset="1" style="stop-color:#1E90FF"/>
			</linearGradient>
			<polygon fill="url(#SVGID_11_)" points="62.3,12.9 51.4,14.2 69.9,20.9 			"/>
			<linearGradient id="SVGID_12_" gradientUnits="userSpaceOnUse" x1="32.7662" y1="44.7873" x2="42.3307" y2="44.7873">
				<stop  offset="4.854369e-003" style="stop-color:#004B8D"/>
				<stop  offset="1" style="stop-color:#1E90FF"/>
			</linearGradient>
			<polyline fill="url(#SVGID_12_)" points="42.3,52.5 39,46.5 39,46.4 40.2,43.1 42.3,37.1 32.8,48.7 40.7,49.6 			"/>
		</g>
		<g>
			<polygon fill="#F6AE3E" points="43.6,66.9 43.6,66.9 43.6,66.9 			"/>
		</g>
	</g>
</g>
</svg>
