<?xml version="1.0" encoding="utf-8"?>
<!-- Generator: Adobe Illustrator 17.1.0, SVG Export Plug-In . SVG Version: 6.00 Build 0)  -->
<!DOCTYPE svg PUBLIC "-//W3C//DTD SVG 1.1//EN" "http://www.w3.org/Graphics/SVG/1.1/DTD/svg11.dtd">
<svg version="1.1" id="Capa_1" xmlns="http://www.w3.org/2000/svg" xmlns:xlink="http://www.w3.org/1999/xlink" x="0px" y="0px"
	 viewBox="0 0 104 100" enable-background="new 0 0 104 100" xml:space="preserve">
<g>
	<linearGradient id="SVGID_1_" gradientUnits="userSpaceOnUse" x1="52.0001" y1="2.905616e-005" x2="52.0001" y2="89.6996">
		<stop  offset="4.854369e-003" style="stop-color:#20B2AA"/>
		<stop  offset="1" style="stop-color:#1E90FF"/>
	</linearGradient>
	<polygon fill="url(#SVGID_1_)" points="26.1,89.7 0.2,44.8 26.1,0 77.9,0 103.8,44.8 77.9,89.7 	"/>
	<g>
		<polygon fill="#EDEEF0" points="40.1,55 19.4,65.3 27.7,82.7 40.2,87.9 51.2,100 62.6,87.8 75.5,84.3 84.6,65.3 61.3,55 		"/>
		<polygon fill="#E3E4E6" points="59.6,84.3 61.3,78.2 40.1,78.2 52,90.4 		"/>
		<polygon fill="#B2B7BF" points="40.1,78.2 19.4,65.3 27.7,82.7 40.2,87.9 51.2,100 52,90.4 		"/>
		<polygon fill="#CDD1D9" points="59.6,84.3 52,90.4 51.2,100 62.6,87.8 75.5,84.3 84.6,65.3 61.3,78.2 		"/>
		<polygon fill="#FAFAFA" points="40.1,55 19.4,65.3 40.1,78.2 61.3,78.2 84.6,65.3 61.3,55 		"/>
	</g>
	<g>
		<radialGradient id="SVGID_2_" cx="52.7607" cy="34.0462" r="28.6533" gradientUnits="userSpaceOnUse">
			<stop  offset="0" style="stop-color:#1E90FF"/>
			<stop  offset="1" style="stop-color:#005CAF"/>
		</radialGradient>
		<rect x="21.8" y="15.1" fill="url(#SVGID_2_)" width="60.1" height="35.6"/>
		<g>
			<radialGradient id="SVGID_3_" cx="52.7607" cy="34.0462" r="28.6533" gradientUnits="userSpaceOnUse">
				<stop  offset="0" style="stop-color:#007ADF"/>
				<stop  offset="1" style="stop-color:#0062B8"/>
			</radialGradient>
			<polygon fill="url(#SVGID_3_)" points="80.6,51.1 79.1,51.1 24.8,51.1 23.2,51.1 23.2,45.9 80.6,45.9 			"/>
			<g>
				<path fill="#F7E72E" d="M70.2,42.4H33.8V22.1h36.4V42.4z M34.9,41.3H69v-18H34.9V41.3z"/>
			</g>
			<polygon fill="#1E90FF" points="32.2,47.3 45.2,47.3 45.2,44 34,44 			"/>
			<polygon fill="#1E90FF" points="69.9,44 58.8,44 58.8,47.3 72.3,47.3 			"/>
			<rect x="46.3" y="44" fill="#1E5E9E" width="11.4" height="3.3"/>
			<polygon fill="#1E90FF" points="25.5,18.2 26.2,20.1 77.8,20.1 78.5,18.2 			"/>
			<polygon fill="#FFFFFF" points="48.5,37.4 48.4,37.5 49.9,38.3 55.4,27.3 60.8,32.6 55.3,37.3 56.4,38.6 63.3,32.6 56.4,25.9 
				55.5,26.9 54.1,26.2 48.6,37.3 43,31.9 48.6,27.2 47.5,25.9 40.5,31.8 47.4,38.5 			"/>
			<polygon fill="none" points="23.3,15.8 23.3,49.8 24.9,49.8 79.1,49.8 80.7,49.8 80.7,15.8 			"/>
			<polygon fill="#CACFD9" points="83.6,52.6 20.4,52.6 20.4,56.1 43.5,56.1 41.9,63.1 62.1,63.1 60.5,56.1 83.6,56.1 			"/>
			<path fill="#0D3860" d="M82.1,34.9L83.6,13H20.4l1.4,21.9l-1.4,17.7h63.1L82.1,34.9z M23.3,49.8l1.4-15.1l-1.4-19h57.4l-1.4,19
				l1.4,15.1H23.3z"/>
		</g>
	</g>
</g>
</svg>
