<?xml version="1.0" encoding="utf-8"?>
<!-- Generator: Adobe Illustrator 17.1.0, SVG Export Plug-In . SVG Version: 6.00 Build 0)  -->
<!DOCTYPE svg PUBLIC "-//W3C//DTD SVG 1.1//EN" "http://www.w3.org/Graphics/SVG/1.1/DTD/svg11.dtd">
<svg version="1.1" id="Capa_1" xmlns="http://www.w3.org/2000/svg" xmlns:xlink="http://www.w3.org/1999/xlink" x="0px" y="0px"
	 viewBox="0 0 50 45" enable-background="new 0 0 50 45" xml:space="preserve">
<radialGradient id="SVGID_1_" cx="0.771" cy="2.6928" r="45.0512" gradientTransform="matrix(1 0 0 0.9988 0 2.4474)" gradientUnits="userSpaceOnUse">
	<stop  offset="0" style="stop-color:#97B953"/>
	<stop  offset="0.5" style="stop-color:#3B9C7B"/>
	<stop  offset="1" style="stop-color:#3E7ABA"/>
</radialGradient>
<path fill="url(#SVGID_1_)" d="M45.9,4.2c-2.7-2.8-6-4.2-9.8-4.2C31.5,0,27.8,1.8,25,5.5C22.2,1.8,18.5,0,13.9,0
	c-3.8,0-7.1,1.4-9.8,4.2C1.4,6.9,0,10.2,0,14c0,3.6,1.3,6.9,3.9,9.6l19.7,19.9L25,45l1.4-1.4l19.3-19.5c2.9-2.7,4.3-6,4.3-10
	C50,10.2,48.6,6.9,45.9,4.2z"/>
</svg>
