<?xml version="1.0" encoding="utf-8"?>
<!-- Generator: Adobe Illustrator 17.1.0, SVG Export Plug-In . SVG Version: 6.00 Build 0)  -->
<!DOCTYPE svg PUBLIC "-//W3C//DTD SVG 1.1//EN" "http://www.w3.org/Graphics/SVG/1.1/DTD/svg11.dtd">
<svg version="1.1" id="Capa_1" xmlns="http://www.w3.org/2000/svg" xmlns:xlink="http://www.w3.org/1999/xlink" x="0px" y="0px"
	 viewBox="0 0 300 380" enable-background="new 0 0 300 380" xml:space="preserve">
<g>
	<g>
		
			<linearGradient id="SVGID_1_" gradientUnits="userSpaceOnUse" x1="-1957.0021" y1="694.803" x2="-1949.634" y2="694.803" gradientTransform="matrix(-0.9387 -0.3446 0.3446 -0.9387 -2068.7004 232.1306)">
			<stop  offset="0" style="stop-color:#F7E72E"/>
			<stop  offset="1" style="stop-color:#F6AE3E"/>
		</linearGradient>
		<path fill="url(#SVGID_1_)" d="M0,254.1l6.6,3.4l-0.3-7.4L0,254.1z M2,254l3.3-2.1l0.2,4L2,254z"/>
	</g>
	<g>
		
			<linearGradient id="SVGID_2_" gradientUnits="userSpaceOnUse" x1="-2147.1243" y1="646.141" x2="-2139.7563" y2="646.141" gradientTransform="matrix(-0.9387 -0.3446 0.3446 -0.9387 -2068.7004 232.1306)">
			<stop  offset="0" style="stop-color:#F7E72E"/>
			<stop  offset="1" style="stop-color:#F6AE3E"/>
		</linearGradient>
		<path fill="url(#SVGID_2_)" d="M161.7,365.3l6.6,3.4l-0.3-7.4L161.7,365.3z M163.7,365.2l3.3-2.1l0.2,4L163.7,365.2z"/>
	</g>
	<g>
		
			<linearGradient id="SVGID_3_" gradientUnits="userSpaceOnUse" x1="250.9937" y1="190.0473" x2="260.9095" y2="190.0473" gradientTransform="matrix(-1 0 0 -1 300 380)">
			<stop  offset="0" style="stop-color:#F7F7F7"/>
			<stop  offset="1" style="stop-color:#F6F6F6"/>
		</linearGradient>
		<path fill="url(#SVGID_3_)" d="M40.8,184.7l-1.7,10.5l9.9-3.8L40.8,184.7z M41.8,187.4l4.4,3.6l-5.3,2L41.8,187.4z"/>
	</g>
	<g>
		
			<linearGradient id="SVGID_4_" gradientUnits="userSpaceOnUse" x1="-5497.1187" y1="5242.7427" x2="-5483.4644" y2="5242.7427" gradientTransform="matrix(-0.3702 -0.929 0.929 -0.3702 -6745.269 -3139.1455)">
			<stop  offset="0" style="stop-color:#F7F7F7"/>
			<stop  offset="1" style="stop-color:#F6F6F6"/>
		</linearGradient>
		<path fill="url(#SVGID_4_)" d="M151,15.8l3.4,13.3l9.9-9.6L151,15.8z M153.6,18.4l7.1,2l-5.2,5.1L153.6,18.4z"/>
	</g>
	<g>
		
			<linearGradient id="SVGID_5_" gradientUnits="userSpaceOnUse" x1="-5735.1621" y1="5255.938" x2="-5721.5073" y2="5255.938" gradientTransform="matrix(-0.3702 -0.929 0.929 -0.3702 -6745.269 -3139.1455)">
			<stop  offset="0" style="stop-color:#F7F7F7"/>
			<stop  offset="1" style="stop-color:#F6F6F6"/>
		</linearGradient>
		<path fill="url(#SVGID_5_)" d="M251.4,232.1l3.4,13.3l9.9-9.6L251.4,232.1z M254,234.7l7.1,2l-5.2,5.1L254,234.7z"/>
	</g>
	<g>
		
			<linearGradient id="SVGID_6_" gradientUnits="userSpaceOnUse" x1="-3166.78" y1="1472.077" x2="-3154.376" y2="1472.077" gradientTransform="matrix(-0.8666 -0.499 0.499 -0.8666 -3238.7485 -132.2643)">
			<stop  offset="0" style="stop-color:#F7E72E"/>
			<stop  offset="1" style="stop-color:#F6AE3E"/>
		</linearGradient>
		<path fill="url(#SVGID_6_)" d="M228.9,173l12.6-3.1l-8.9-9.3L228.9,173z M231.4,170.6l1.9-6.6l4.8,5L231.4,170.6z"/>
	</g>
	<g>
		
			<linearGradient id="SVGID_7_" gradientUnits="userSpaceOnUse" x1="-3275.5508" y1="1385.6537" x2="-3263.1467" y2="1385.6537" gradientTransform="matrix(-0.8666 -0.499 0.499 -0.8666 -3238.7485 -132.2643)">
			<stop  offset="0" style="stop-color:#F7E72E"/>
			<stop  offset="1" style="stop-color:#F6AE3E"/>
		</linearGradient>
		<path fill="url(#SVGID_7_)" d="M280,302.2l12.6-3.1l-8.9-9.3L280,302.2z M282.5,299.8l1.9-6.6l4.8,5L282.5,299.8z"/>
	</g>
	<g>
		
			<linearGradient id="SVGID_8_" gradientUnits="userSpaceOnUse" x1="-5983.4946" y1="6285.2129" x2="-5969.4873" y2="6285.2129" gradientTransform="matrix(-0.2145 -0.9767 0.9767 -0.2145 -7257.0967 -4188.6851)">
			<stop  offset="0" style="stop-color:#04A99D"/>
			<stop  offset="1" style="stop-color:#04A99D"/>
		</linearGradient>
		<path fill="url(#SVGID_8_)" d="M157.6,308.9l14.8-4.6L161,293.8L157.6,308.9z M160.4,305.8l1.8-8l6,5.6L160.4,305.8z"/>
	</g>
	<g>
		
			<linearGradient id="SVGID_9_" gradientUnits="userSpaceOnUse" x1="-5909.6577" y1="6352.8115" x2="-5895.6504" y2="6352.8115" gradientTransform="matrix(-0.2145 -0.9767 0.9767 -0.2145 -7257.0967 -4188.6851)">
			<stop  offset="0" style="stop-color:#04A99D"/>
			<stop  offset="1" style="stop-color:#04A99D"/>
		</linearGradient>
		<path fill="url(#SVGID_9_)" d="M207.8,222.3l14.8-4.6l-11.4-10.5L207.8,222.3z M210.6,219.2l1.8-8l6,5.6L210.6,219.2z"/>
	</g>
	<g>
		
			<linearGradient id="SVGID_10_" gradientUnits="userSpaceOnUse" x1="-5723.7354" y1="6470.873" x2="-5709.7275" y2="6470.873" gradientTransform="matrix(-0.2145 -0.9767 0.9767 -0.2145 -7257.0967 -4188.6851)">
			<stop  offset="0" style="stop-color:#33A9DC"/>
			<stop  offset="1" style="stop-color:#1570B2"/>
		</linearGradient>
		<path fill="url(#SVGID_10_)" d="M283.2,15.3l14.8-4.6L286.6,0.2L283.2,15.3z M286,12.3l1.8-8l6,5.6L286,12.3z"/>
	</g>
	<g>
		
			<linearGradient id="SVGID_11_" gradientUnits="userSpaceOnUse" x1="-4374.4985" y1="2941.0774" x2="-4360.4922" y2="2941.0774" gradientTransform="matrix(-0.7035 -0.7107 0.7107 -0.7035 -5055.8687 -944.237)">
			<stop  offset="0" style="stop-color:#04A99D"/>
			<stop  offset="1" style="stop-color:#04A99D"/>
		</linearGradient>
		<path fill="url(#SVGID_11_)" d="M106.3,101.1l10-11.8l-15.2-2.8L106.3,101.1z M107,97l-2.8-7.8l8.1,1.5L107,97z"/>
	</g>
	<g>
		
			<linearGradient id="SVGID_12_" gradientUnits="userSpaceOnUse" x1="-4537.2339" y1="2703.7576" x2="-4532.7969" y2="2703.7576" gradientTransform="matrix(-0.7035 -0.7107 0.7107 -0.7035 -5055.8687 -944.237)">
			<stop  offset="0" style="stop-color:#04A99D"/>
			<stop  offset="1" style="stop-color:#04A99D"/>
		</linearGradient>
		<path fill="url(#SVGID_12_)" d="M55.9,380l3.2-3.7l-4.8-0.9L55.9,380z M56.1,378.7l-0.9-2.5l2.6,0.5L56.1,378.7z"/>
	</g>
	<g>
		
			<linearGradient id="SVGID_13_" gradientUnits="userSpaceOnUse" x1="-4446.3457" y1="2872.7725" x2="-4432.3389" y2="2872.7725" gradientTransform="matrix(-0.7035 -0.7107 0.7107 -0.7035 -5055.8687 -944.237)">
			<stop  offset="0" style="stop-color:#04A99D"/>
			<stop  offset="1" style="stop-color:#04A99D"/>
		</linearGradient>
		<path fill="url(#SVGID_13_)" d="M108.3,200.2l10-11.8l-15.2-2.8L108.3,200.2z M109,196.1l-2.8-7.8l8.1,1.5L109,196.1z"/>
	</g>
	<g>
		
			<linearGradient id="SVGID_14_" gradientUnits="userSpaceOnUse" x1="270.4857" y1="26.1625" x2="276.2461" y2="26.1625" gradientTransform="matrix(-1 0 0 -1 300 380)">
			<stop  offset="0" style="stop-color:#33A9DC"/>
			<stop  offset="1" style="stop-color:#1570B2"/>
		</linearGradient>
		<path fill="url(#SVGID_14_)" d="M23.8,356.6l5.8-1.1l-3.8-4.5L23.8,356.6z M24.9,355.6l1-2.9l2,2.4L24.9,355.6z"/>
	</g>
	<g>
		
			<linearGradient id="SVGID_15_" gradientUnits="userSpaceOnUse" x1="118.4771" y1="184.3259" x2="124.2375" y2="184.3259" gradientTransform="matrix(-1 0 0 -1 300 380)">
			<stop  offset="0" style="stop-color:#33A9DC"/>
			<stop  offset="1" style="stop-color:#1570B2"/>
		</linearGradient>
		<path fill="url(#SVGID_15_)" d="M175.8,198.4l5.8-1.1l-3.8-4.5L175.8,198.4z M176.9,197.4l1-2.9l2,2.4L176.9,197.4z"/>
	</g>
	<g>
		
			<linearGradient id="SVGID_16_" gradientUnits="userSpaceOnUse" x1="260.0293" y1="269.7239" x2="265.7896" y2="269.7239" gradientTransform="matrix(-1 0 0 -1 300 380)">
			<stop  offset="0" style="stop-color:#33A9DC"/>
			<stop  offset="1" style="stop-color:#1570B2"/>
		</linearGradient>
		<path fill="url(#SVGID_16_)" d="M34.2,113L40,112l-3.8-4.5L34.2,113z M35.4,112l1-2.9l2,2.4L35.4,112z"/>
	</g>
	<g>
		
			<linearGradient id="SVGID_17_" gradientUnits="userSpaceOnUse" x1="-3915.4399" y1="2338.6951" x2="-3906.2878" y2="2338.6951" gradientTransform="matrix(-0.7788 -0.6272 0.6272 -0.7788 -4279.6533 -554.0213)">
			<stop  offset="0" style="stop-color:#FC3D6F"/>
			<stop  offset="1" style="stop-color:#FC0D4B"/>
		</linearGradient>
		<path fill="url(#SVGID_17_)" d="M231.2,81.6l8.1-4.6l-8-4.7L231.2,81.6z M232.4,79.4l0-4.9l4.2,2.5L232.4,79.4z"/>
	</g>
	<g>
		
			<linearGradient id="SVGID_18_" gradientUnits="userSpaceOnUse" x1="-5890.8042" y1="6505.5562" x2="-5882.2109" y2="6505.5562" gradientTransform="matrix(-0.1407 -0.9901 0.9901 -0.1407 -7179.2544 -4579.3032)">
			<stop  offset="0" style="stop-color:#EB33FC"/>
			<stop  offset="1" style="stop-color:#AC00BD"/>
		</linearGradient>
		<path fill="url(#SVGID_18_)" d="M86.3,335.2l8.4,2l-2.5-8.3L86.3,335.2z M88.5,334.6l3.2-3.4l1.3,4.4L88.5,334.6z"/>
	</g>
	<g>
		
			<linearGradient id="SVGID_19_" gradientUnits="userSpaceOnUse" x1="-3738.8701" y1="2280.2805" x2="-3730.5325" y2="2280.2805" gradientTransform="matrix(-0.7788 -0.6272 0.6272 -0.7788 -4279.6533 -554.0213)">
			<stop  offset="0" style="stop-color:#EB33FC"/>
			<stop  offset="1" style="stop-color:#AC00BD"/>
		</linearGradient>
		<path fill="url(#SVGID_19_)" d="M57.5,16.2l7.3-4.2l-7.3-4.3L57.5,16.2z M58.6,14.3l0-4.5l3.9,2.3L58.6,14.3z"/>
	</g>
	<g>
		
			<linearGradient id="SVGID_20_" gradientUnits="userSpaceOnUse" x1="157.5061" y1="125.7178" x2="163.4505" y2="125.7178" gradientTransform="matrix(-1 0 0 -1 300 380)">
			<stop  offset="0" style="stop-color:#EB33FC"/>
			<stop  offset="1" style="stop-color:#AC00BD"/>
		</linearGradient>
		<path fill="url(#SVGID_20_)" d="M140.3,257.1l2.2-5.6l-5.9,0.9L140.3,257.1z M140,255.5l-2-2.5l3.2-0.5L140,255.5z"/>
	</g>
	<g>
		
			<linearGradient id="SVGID_21_" gradientUnits="userSpaceOnUse" x1="121.2653" y1="272.4829" x2="127.2097" y2="272.4829" gradientTransform="matrix(-1 0 0 -1 300 380)">
			<stop  offset="0" style="stop-color:#EB33FC"/>
			<stop  offset="1" style="stop-color:#AC00BD"/>
		</linearGradient>
		<path fill="url(#SVGID_21_)" d="M176.5,110.3l2.2-5.6l-5.9,0.9L176.5,110.3z M176.3,108.7l-2-2.5l3.2-0.5L176.3,108.7z"/>
	</g>
	<g>
		
			<linearGradient id="SVGID_22_" gradientUnits="userSpaceOnUse" x1="60.7852" y1="34.2432" x2="68.8311" y2="34.2432" gradientTransform="matrix(-1 0 0 -1 300 380)">
			<stop  offset="0" style="stop-color:#EB33FC"/>
			<stop  offset="1" style="stop-color:#AC00BD"/>
		</linearGradient>
		<path fill="url(#SVGID_22_)" d="M236.2,349.5l3-7.6l-8,1.2L236.2,349.5z M235.9,347.4l-2.7-3.4l4.3-0.6L235.9,347.4z"/>
	</g>
</g>
</svg>
