<?xml version="1.0" encoding="utf-8"?>
<!-- Generator: Adobe Illustrator 17.1.0, SVG Export Plug-In . SVG Version: 6.00 Build 0)  -->
<!DOCTYPE svg PUBLIC "-//W3C//DTD SVG 1.1//EN" "http://www.w3.org/Graphics/SVG/1.1/DTD/svg11.dtd">
<svg version="1.1" id="Capa_1" xmlns="http://www.w3.org/2000/svg" xmlns:xlink="http://www.w3.org/1999/xlink" x="0px" y="0px"
	 viewBox="0 0 300 380" enable-background="new 0 0 300 380" xml:space="preserve">
<g>
	<g>
		
			<linearGradient id="SVGID_1_" gradientUnits="userSpaceOnUse" x1="-1956.3129" y1="696.6806" x2="-1948.9447" y2="696.6806" gradientTransform="matrix(0.9387 0.3446 -0.3446 0.9387 2368.7004 147.8694)">
			<stop  offset="0" style="stop-color:#F7E72E"/>
			<stop  offset="1" style="stop-color:#F6AE3E"/>
		</linearGradient>
		<path fill="url(#SVGID_1_)" d="M300,127.9l-6.6-3.4l0.3,7.4L300,127.9z M298,128l-3.3,2.1l-0.2-4L298,128z"/>
	</g>
	<g>
		
			<linearGradient id="SVGID_2_" gradientUnits="userSpaceOnUse" x1="349.5717" y1="-977.4295" x2="359.7983" y2="-977.4295" gradientTransform="matrix(0.9187 0.3951 -0.3951 0.9187 -455.3976 946.3377)">
			<stop  offset="0" style="stop-color:#F7F7F7"/>
			<stop  offset="1" style="stop-color:#F6F6F6"/>
		</linearGradient>
		<path fill="url(#SVGID_2_)" d="M259.2,195.3l1.7-10.5l-9.9,3.8L259.2,195.3z M258.2,192.6l-4.4-3.6l5.3-2L258.2,192.6z"/>
	</g>
	<g>
		
			<linearGradient id="SVGID_3_" gradientUnits="userSpaceOnUse" x1="-5497.1187" y1="5242.7427" x2="-5483.4644" y2="5242.7427" gradientTransform="matrix(0.3702 0.929 -0.929 0.3702 7045.269 3519.1455)">
			<stop  offset="0" style="stop-color:#F7F7F7"/>
			<stop  offset="1" style="stop-color:#F6F6F6"/>
		</linearGradient>
		<path fill="url(#SVGID_3_)" d="M149,364.2l-3.4-13.3l-9.9,9.6L149,364.2z M146.4,361.6l-7.1-2l5.2-5.1L146.4,361.6z"/>
	</g>
	<g>
		
			<linearGradient id="SVGID_4_" gradientUnits="userSpaceOnUse" x1="-5735.1621" y1="5255.938" x2="-5721.5073" y2="5255.938" gradientTransform="matrix(0.3702 0.929 -0.929 0.3702 7045.269 3519.1455)">
			<stop  offset="0" style="stop-color:#F7F7F7"/>
			<stop  offset="1" style="stop-color:#F6F6F6"/>
		</linearGradient>
		<path fill="url(#SVGID_4_)" d="M48.6,147.9l-3.4-13.3l-9.9,9.6L48.6,147.9z M46,145.3l-7.1-2l5.2-5.1L46,145.3z"/>
	</g>
	<g>
		
			<linearGradient id="SVGID_5_" gradientUnits="userSpaceOnUse" x1="-3071.2371" y1="1389.3207" x2="-3058.833" y2="1389.3207" gradientTransform="matrix(0.8666 0.499 -0.499 0.8666 3538.7485 512.2643)">
			<stop  offset="0" style="stop-color:#F7E72E"/>
			<stop  offset="1" style="stop-color:#F6AE3E"/>
		</linearGradient>
		<path fill="url(#SVGID_5_)" d="M195.2,182.9l-12.6,3.1l8.9,9.3L195.2,182.9z M192.7,185.4l-1.9,6.6l-4.8-5L192.7,185.4z"/>
	</g>
	<g>
		
			<linearGradient id="SVGID_6_" gradientUnits="userSpaceOnUse" x1="-3275.5508" y1="1385.6537" x2="-3263.1467" y2="1385.6537" gradientTransform="matrix(0.8666 0.499 -0.499 0.8666 3538.7485 512.2643)">
			<stop  offset="0" style="stop-color:#F7E72E"/>
			<stop  offset="1" style="stop-color:#F6AE3E"/>
		</linearGradient>
		<path fill="url(#SVGID_6_)" d="M20,77.8L7.4,80.9l8.9,9.3L20,77.8z M17.5,80.2l-1.9,6.6l-4.8-5L17.5,80.2z"/>
	</g>
	<g>
		
			<linearGradient id="SVGID_7_" gradientUnits="userSpaceOnUse" x1="-5983.4946" y1="6285.2129" x2="-5969.4873" y2="6285.2129" gradientTransform="matrix(0.2145 0.9767 -0.9767 0.2145 7557.0967 4568.6851)">
			<stop  offset="0" style="stop-color:#04A99D"/>
			<stop  offset="1" style="stop-color:#04A99D"/>
		</linearGradient>
		<path fill="url(#SVGID_7_)" d="M142.4,71.1l-14.8,4.6L139,86.2L142.4,71.1z M139.6,74.2l-1.8,8l-6-5.6L139.6,74.2z"/>
	</g>
	<g>
		
			<linearGradient id="SVGID_8_" gradientUnits="userSpaceOnUse" x1="-5909.6577" y1="6352.8115" x2="-5895.6504" y2="6352.8115" gradientTransform="matrix(0.2145 0.9767 -0.9767 0.2145 7557.0967 4568.6851)">
			<stop  offset="0" style="stop-color:#04A99D"/>
			<stop  offset="1" style="stop-color:#04A99D"/>
		</linearGradient>
		<path fill="url(#SVGID_8_)" d="M92.2,157.7l-14.8,4.6l11.4,10.5L92.2,157.7z M89.4,160.8l-1.8,8l-6-5.6L89.4,160.8z"/>
	</g>
	<g>
		
			<linearGradient id="SVGID_9_" gradientUnits="userSpaceOnUse" x1="-5724.1646" y1="6472.8262" x2="-5710.1567" y2="6472.8262" gradientTransform="matrix(0.2145 0.9767 -0.9767 0.2145 7557.0967 4568.6851)">
			<stop  offset="0" style="stop-color:#33A9DC"/>
			<stop  offset="1" style="stop-color:#1570B2"/>
		</linearGradient>
		<path fill="url(#SVGID_9_)" d="M14.8,364.7L0,369.2l11.4,10.5L14.8,364.7z M12,367.7l-1.8,8l-6-5.6L12,367.7z"/>
	</g>
	<g>
		
			<linearGradient id="SVGID_10_" gradientUnits="userSpaceOnUse" x1="-4387.5557" y1="2918.854" x2="-4373.5488" y2="2918.854" gradientTransform="matrix(0.7035 0.7107 -0.7107 0.7035 5355.8687 1324.2371)">
			<stop  offset="0" style="stop-color:#04A99D"/>
			<stop  offset="1" style="stop-color:#04A99D"/>
		</linearGradient>
		<path fill="url(#SVGID_10_)" d="M200.3,254l-10,11.8l15.2,2.8L200.3,254z M199.6,258.1l2.8,7.8l-8.1-1.5L199.6,258.1z"/>
	</g>
	<g>
		
			<linearGradient id="SVGID_11_" gradientUnits="userSpaceOnUse" x1="-4443.5229" y1="2797.0959" x2="-4439.0864" y2="2797.0959" gradientTransform="matrix(0.7035 0.7107 -0.7107 0.7035 5355.8687 1324.2371)">
			<stop  offset="0" style="stop-color:#04A99D"/>
			<stop  offset="1" style="stop-color:#04A99D"/>
		</linearGradient>
		<path fill="url(#SVGID_11_)" d="M243.7,132.3l-3.2,3.7l4.8,0.9L243.7,132.3z M243.5,133.6l0.9,2.5l-2.6-0.5L243.5,133.6z"/>
	</g>
	<g>
		
			<linearGradient id="SVGID_12_" gradientUnits="userSpaceOnUse" x1="-4416.1675" y1="3065.126" x2="-4402.1606" y2="3065.126" gradientTransform="matrix(0.7035 0.7107 -0.7107 0.7035 5355.8687 1324.2371)">
			<stop  offset="0" style="stop-color:#04A99D"/>
			<stop  offset="1" style="stop-color:#04A99D"/>
		</linearGradient>
		<path fill="url(#SVGID_12_)" d="M76.2,336.6l-10,11.8l15.2,2.8L76.2,336.6z M75.5,340.7l2.8,7.8l-8.1-1.5L75.5,340.7z"/>
	</g>
	<g>
		
			<linearGradient id="SVGID_13_" gradientUnits="userSpaceOnUse" x1="-1959.1816" y1="1991.5953" x2="-1953.3867" y2="1991.5953" gradientTransform="matrix(0.5308 0.8475 -0.8475 0.5308 2990.3965 603.1268)">
			<stop  offset="0" style="stop-color:#33A9DC"/>
			<stop  offset="1" style="stop-color:#1570B2"/>
		</linearGradient>
		<path fill="url(#SVGID_13_)" d="M266,0.2l-5.8,1.1l3.8,4.5L266,0.2z M264.9,1.3l-1,2.9l-2-2.4L264.9,1.3z"/>
	</g>
	<g>
		
			<linearGradient id="SVGID_14_" gradientUnits="userSpaceOnUse" x1="-1880.7792" y1="2208.0171" x2="-1874.9843" y2="2208.0171" gradientTransform="matrix(0.5308 0.8475 -0.8475 0.5308 2990.3965 603.1268)">
			<stop  offset="0" style="stop-color:#33A9DC"/>
			<stop  offset="1" style="stop-color:#1570B2"/>
		</linearGradient>
		<path fill="url(#SVGID_14_)" d="M124.2,181.6l-5.8,1.1l3.8,4.5L124.2,181.6z M123.1,182.6l-1,2.9l-2-2.4L123.1,182.6z"/>
	</g>
	<g>
		
			<linearGradient id="SVGID_15_" gradientUnits="userSpaceOnUse" x1="-1765.7706" y1="2126.0676" x2="-1759.9756" y2="2126.0676" gradientTransform="matrix(0.5308 0.8475 -0.8475 0.5308 2990.3965 603.1268)">
			<stop  offset="0" style="stop-color:#33A9DC"/>
			<stop  offset="1" style="stop-color:#1570B2"/>
		</linearGradient>
		<path fill="url(#SVGID_15_)" d="M254.7,235.5l-5.8,1.1l3.8,4.5L254.7,235.5z M253.6,236.6l-1,2.9l-2-2.4L253.6,236.6z"/>
	</g>
	<g>
		
			<linearGradient id="SVGID_16_" gradientUnits="userSpaceOnUse" x1="-3974.1218" y1="2272.2478" x2="-3964.9695" y2="2272.2478" gradientTransform="matrix(0.7788 0.6272 -0.6272 0.7788 4579.6533 934.0213)">
			<stop  offset="0" style="stop-color:#FC3D6F"/>
			<stop  offset="1" style="stop-color:#FC0D4B"/>
		</linearGradient>
		<path fill="url(#SVGID_16_)" d="M64.8,209.9l-8.1,4.6l8,4.7L64.8,209.9z M63.6,212l0,4.9l-4.2-2.5L63.6,212z"/>
	</g>
	<g>
		
			<linearGradient id="SVGID_17_" gradientUnits="userSpaceOnUse" x1="-5904.2944" y1="6541.2764" x2="-5895.7007" y2="6541.2764" gradientTransform="matrix(0.1407 0.9901 -0.9901 0.1407 7479.2544 4959.3032)">
			<stop  offset="0" style="stop-color:#EB33FC"/>
			<stop  offset="1" style="stop-color:#AC00BD"/>
		</linearGradient>
		<path fill="url(#SVGID_17_)" d="M176.5,36.4l-8.4-2l2.5,8.3L176.5,36.4z M174.2,37.1l-3.2,3.4l-1.3-4.4L174.2,37.1z"/>
	</g>
	<g>
		
			<linearGradient id="SVGID_18_" gradientUnits="userSpaceOnUse" x1="-3740.428" y1="2281.5349" x2="-3732.0903" y2="2281.5349" gradientTransform="matrix(0.7788 0.6272 -0.6272 0.7788 4579.6533 934.0213)">
			<stop  offset="0" style="stop-color:#EB33FC"/>
			<stop  offset="1" style="stop-color:#AC00BD"/>
		</linearGradient>
		<path fill="url(#SVGID_18_)" d="M240.5,363.8l-7.3,4.2l7.3,4.3L240.5,363.8z M239.4,365.7l0,4.5l-3.9-2.3L239.4,365.7z"/>
	</g>
	<g>
		<linearGradient id="SVGID_19_" gradientUnits="userSpaceOnUse" x1="157.5061" y1="125.7178" x2="163.4505" y2="125.7178">
			<stop  offset="0" style="stop-color:#EB33FC"/>
			<stop  offset="1" style="stop-color:#AC00BD"/>
		</linearGradient>
		<path fill="url(#SVGID_19_)" d="M159.7,122.9l-2.2,5.6l5.9-0.9L159.7,122.9z M160,124.5l2,2.5l-3.2,0.5L160,124.5z"/>
	</g>
	<g>
		<linearGradient id="SVGID_20_" gradientUnits="userSpaceOnUse" x1="47.4581" y1="30.463" x2="55.504" y2="30.463">
			<stop  offset="0" style="stop-color:#EB33FC"/>
			<stop  offset="1" style="stop-color:#AC00BD"/>
		</linearGradient>
		<path fill="url(#SVGID_20_)" d="M50.5,26.7l-3,7.6l8-1.2L50.5,26.7z M50.8,28.8l2.7,3.4l-4.3,0.6L50.8,28.8z"/>
	</g>
</g>
</svg>
